<svg width="46" height="46" viewBox="0 0 46 46" fill="none" xmlns="http://www.w3.org/2000/svg">
<rect x="1" y="1" width="44" height="44" stroke="#8092A9" stroke-width="2" fill="#8092A9"/>
<path d="M15.9297 33H30.0703C31.6858 33 33 31.6858 33 30.0703V15.9297C33 14.3142 31.6858 13 30.0703 13H15.9297C14.3142 13 13 14.3142 13 15.9297V30.0703C13 31.6858 14.3142 33 15.9297 33ZM14.1719 15.9297C14.1719 14.9604 14.9604 14.1719 15.9297 14.1719H30.0703C31.0396 14.1719 31.8281 14.9604 31.8281 15.9297V30.0703C31.8281 31.0396 31.0396 31.8281 30.0703 31.8281H15.9297C14.9604 31.8281 14.1719 31.0396 14.1719 30.0703V15.9297Z" fill="#FFFFFF"/>
<path d="M23 28.2734C25.9077 28.2734 28.2734 25.9077 28.2734 23C28.2734 20.0923 25.9077 17.7266 23 17.7266C20.0923 17.7266 17.7266 20.0923 17.7266 23C17.7266 25.9077 20.0923 28.2734 23 28.2734ZM23 18.8984C25.2617 18.8984 27.1016 20.7383 27.1016 23C27.1016 25.2617 25.2617 27.1016 23 27.1016C20.7383 27.1016 18.8984 25.2617 18.8984 23C18.8984 20.7383 20.7383 18.8984 23 18.8984Z" fill="#FFFFFF"/>
<path d="M28.8594 18.8984C29.8286 18.8984 30.6172 18.1099 30.6172 17.1406C30.6172 16.1714 29.8286 15.3828 28.8594 15.3828C27.8901 15.3828 27.1016 16.1714 27.1016 17.1406C27.1016 18.1099 27.8901 18.8984 28.8594 18.8984ZM28.8594 16.5547C29.1824 16.5547 29.4453 16.8176 29.4453 17.1406C29.4453 17.4637 29.1824 17.7266 28.8594 17.7266C28.5363 17.7266 28.2734 17.4637 28.2734 17.1406C28.2734 16.8176 28.5363 16.5547 28.8594 16.5547Z" fill="#FFFFFF"/>

</svg>
