<svg width="46" height="46" viewBox="0 0 46 46" fill="none" xmlns="http://www.w3.org/2000/svg">
<path d="M29.2026 26.1337C27.9824 26.1337 26.8943 26.7367 26.1982 27.6686L20.37 24.2928C20.5066 23.8862 20.5815 23.4477 20.5815 22.9954C20.5815 22.5386 20.5066 22.1047 20.3656 21.6935L26.1894 18.3223C26.8811 19.2587 27.9736 19.8663 29.1982 19.8663C31.2863 19.8663 32.9912 18.103 32.9912 15.9331C32.9912 13.7633 31.2907 12 29.1982 12C27.1057 12 25.4053 13.7633 25.4053 15.9331C25.4053 16.39 25.4802 16.8285 25.6211 17.235L19.8018 20.6063C19.1101 19.6653 18.0176 19.0623 16.793 19.0623C14.7048 19.0623 13 20.8256 13 22.9954C13 25.1653 14.7048 26.9286 16.7974 26.9286C18.022 26.9286 19.1145 26.321 19.8106 25.38L25.6344 28.7558C25.4934 29.1669 25.4141 29.6101 25.4141 30.0669C25.4141 32.2321 27.1145 34 29.207 34C31.2996 34 33 32.2367 33 30.0669C33 27.897 31.2952 26.1337 29.2026 26.1337ZM29.2026 13.238C30.6388 13.238 31.8062 14.4485 31.8062 15.9377C31.8062 17.4269 30.6388 18.6375 29.2026 18.6375C27.7665 18.6375 26.5991 17.4269 26.5991 15.9377C26.5991 14.4485 27.7709 13.238 29.2026 13.238ZM16.7974 25.6952C15.3612 25.6952 14.1938 24.4846 14.1938 22.9954C14.1938 21.5062 15.3612 20.2957 16.7974 20.2957C18.2335 20.2957 19.4009 21.5062 19.4009 22.9954C19.4009 24.4846 18.2291 25.6952 16.7974 25.6952ZM29.2026 32.762C27.7665 32.762 26.5991 31.5515 26.5991 30.0623C26.5991 28.5731 27.7665 27.3625 29.2026 27.3625C30.6388 27.3625 31.8062 28.5731 31.8062 30.0623C31.8062 31.5515 30.6388 32.762 29.2026 32.762Z" fill="#002554"/>
<rect x="1" y="1" width="44" height="44" stroke="#002554" stroke-width="2"/>
</svg>
