<svg width="46" height="46" viewBox="0 0 46 46" fill="none" xmlns="http://www.w3.org/2000/svg">
<rect x="1" y="1" width="44" height="44" stroke="#002554" stroke-width="2"/>
<path d="M30.8414 24.2948L30.8305 24.2855C30.6598 24.1395 30.1367 23.668 29.9603 23.4619C29.7533 23.2048 29.801 23.0363 29.9562 22.7838C30.1523 22.4648 30.5452 21.9755 30.961 21.4573C32.2928 19.7982 33.1526 18.6497 32.9756 17.8338L32.8803 17.3981L27.9619 17.4001C27.9446 17.443 27.688 18.4874 26.6049 20.2658C25.8195 21.5553 25.3044 21.9604 25.123 22.0319L25.0949 22.024C25.0359 21.9564 24.9327 21.7741 24.8903 21.3041C24.846 20.8118 24.8852 20.2158 24.9232 19.6394C24.9676 18.9635 25.0059 18.3797 24.9142 17.962L24.7649 17.2816C24.5843 17.2549 23.9235 17.0187 22.0822 17.0008C20.4881 16.9856 20.0198 17.1989 19.7899 17.3869L19.0292 18.0087L19.9907 18.3083C20.3566 18.4224 20.478 18.554 20.5777 19.2063C20.6427 19.6315 20.6767 20.3459 20.6065 20.9838C20.5057 21.8985 20.2638 22.0686 20.2513 22.0777C20.2096 22.0645 19.8564 21.9214 19.2431 20.7204C18.8177 19.8874 18.4448 18.9021 18.1723 18.1827C17.8604 17.3588 17.9165 17.5342 17.7583 17.1449L13 17.1448L13.3079 17.8826C14.5916 20.9615 15.7695 23.3659 17.3457 25.0928C19.0872 27.0008 21.2515 27.9999 24.1669 27.9999H24.7528V27.4571C24.7528 26.9497 24.7981 26.5843 24.8953 26.3073C24.9547 26.1385 25.0336 25.999 25.1164 25.8527C25.2394 25.6373 25.3596 25.545 25.4253 25.5313C25.4848 25.5187 25.5894 25.5591 25.7054 25.6393C26.0384 25.8692 26.3026 26.1714 26.5825 26.4914C26.9862 26.9532 27.4037 27.4305 28.0661 27.743C28.428 27.9138 29.0915 28 29.4566 28C29.5532 28 32.9958 27.9999 33 27.9999L32.9749 27.4348C32.9373 26.5898 32.2194 25.5333 30.8414 24.2948ZM29.4794 26.9143H29.4699C29.2181 26.9182 28.7376 26.8417 28.5979 26.7758C28.1575 26.568 27.8497 26.216 27.4931 25.8083C27.1802 25.4503 26.8565 25.0801 26.4059 24.769C26.0416 24.5173 25.7106 24.4436 25.4478 24.4436C25.3429 24.4436 25.2486 24.4554 25.1677 24.4723C24.8627 24.5359 24.4264 24.7392 24.0796 25.3468C23.9818 25.5197 23.8708 25.7155 23.781 25.9716C23.6868 26.2396 23.6282 26.5374 23.6003 26.8996C21.4033 26.784 19.689 25.9789 18.2406 24.3921C16.8941 22.9166 15.8346 20.8528 14.7126 18.2299C14.7938 18.2299 16.828 18.2302 16.9481 18.2302C16.9848 18.3259 17.0245 18.4307 17.0666 18.5418C17.3604 19.318 17.7627 20.3807 18.2368 21.287C18.9157 22.5848 19.5357 23.1636 20.2469 23.1636C20.6019 23.1636 20.9204 23.0243 21.1677 22.7604C21.5204 22.3843 21.7251 21.7635 21.7938 20.8624C21.848 20.1519 21.7976 19.4442 21.7381 19.0542C21.689 18.7334 21.6189 18.3965 21.448 18.0948C22.1763 18.0644 23.1515 18.1124 23.7694 18.1946C23.8255 18.4778 23.7889 19.0346 23.7535 19.5732C23.6679 20.8744 23.5795 22.2172 24.3231 22.8455C24.4539 22.956 24.5926 23.0152 24.5965 23.0176L24.975 23.1252C25.121 23.0835 25.9668 23.481 27.5684 20.892C28.0815 20.0624 28.5593 19.1065 28.8165 18.4822C29.4131 18.4811 31.4458 18.4832 31.6846 18.4835C31.3463 19.1731 30.5446 20.1567 30.0206 20.8096C29.5638 21.3786 29.1693 21.8701 28.9378 22.2466C28.5078 22.9461 28.5802 23.5696 29.028 24.1195L29.035 24.128C29.285 24.4227 29.9022 24.9683 30.0302 25.0783C30.9576 25.9123 31.4046 26.5115 31.6173 26.9142H29.4794V26.9143Z" fill="#002554"/>
</svg>
