<svg width="46" height="46" viewBox="0 0 46 46" fill="none" xmlns="http://www.w3.org/2000/svg">
<rect x="1" y="1" width="44" height="44" stroke="#8092A9" stroke-width="2" fill="#8092A9"/>
<path d="M17.8372 31.5728C19.3824 32.5027 21.1493 32.9928 22.9646 32.9928C28.4655 32.9928 33 28.504 33 22.9963C33 17.4951 28.472 13 22.9646 13C17.474 13 13.0072 17.4844 13.0072 22.9963C13.0072 24.8359 13.4974 26.6162 14.4272 28.1627L13 33L17.8372 31.5728ZM14.1787 22.9963C14.1787 18.1303 18.1201 14.1714 22.9646 14.1714C27.8521 14.1714 31.8286 18.1303 31.8286 22.9963C31.8286 27.8625 27.8521 31.8213 22.9646 31.8213C21.2828 31.8213 19.6484 31.3449 18.2386 30.4434L18.0134 30.2995L14.7326 31.2675L15.7005 27.9866L15.5566 27.7615C14.6551 26.3514 14.1787 24.7038 14.1787 22.9963Z" fill="#FFFFFF"/>
<path d="M17.8683 21.1544C18.0618 22.1705 18.6361 24.1249 20.3083 25.7971C21.9806 27.4693 23.9349 28.0438 24.9511 28.2373C26.1148 28.4588 27.8224 28.4922 28.6569 27.6577L29.1221 27.1925C29.357 26.9577 29.4864 26.6453 29.4864 26.3131C29.4864 25.981 29.357 25.6688 29.1221 25.4339L27.2616 23.5734C27.0266 23.3384 26.7144 23.2092 26.3823 23.2092C26.0501 23.2092 25.7379 23.3384 25.5029 23.5734L25.0378 24.0385C24.7537 24.3226 24.2173 24.3239 23.9311 24.042L22.0753 22.1084C22.0726 22.1055 22.0698 22.1026 22.0669 22.0999C21.7823 21.8153 21.7823 21.3522 22.0669 21.0676L22.532 20.6025C23.0182 20.1164 23.0182 19.3298 22.532 18.8438L20.6715 16.9833C20.1867 16.4985 19.3979 16.4985 18.9129 16.9833L18.4478 17.4485C17.7818 18.1147 17.5598 19.5346 17.8683 21.1544ZM19.2762 18.2769C19.7645 17.7998 19.7384 17.7906 19.7923 17.7906C19.8108 17.7906 19.8292 17.7977 19.8433 17.8117C21.8037 19.7827 21.725 19.6669 21.725 19.7233C21.725 19.743 21.7178 19.7603 21.7039 19.7743L21.2387 20.2394C20.4979 20.9802 20.495 22.1794 21.2339 22.9236L23.0908 24.8584C23.0937 24.8611 23.0964 24.864 23.0993 24.8669C23.84 25.6076 25.1231 25.61 25.8662 24.8669L26.3313 24.4018C26.3594 24.3737 26.4051 24.3737 26.4332 24.4018C28.3937 26.3727 28.3149 26.2568 28.3149 26.3133C28.3149 26.3331 28.3078 26.3502 28.2939 26.3643L27.8286 26.8293C27.5099 27.1481 26.4946 27.3388 25.1703 27.0866C24.2865 26.9182 22.5871 26.4192 21.1367 24.9688C19.6864 23.5185 19.1874 21.8191 19.0191 20.9353C18.7667 19.611 18.9575 18.5956 19.2762 18.2769Z" fill="#FFFFFF"/>
</svg>
