<svg width="45" height="20" viewBox="0 0 190 52" fill="none" xmlns="http://www.w3.org/2000/svg">
<path fill-rule="evenodd" clip-rule="evenodd" d="M34.5056 0.516146H0.905575C0.778479 0.515359 0.652657 0.5415 0.536393 0.592848C0.420129 0.644197 0.31606 0.719589 0.231035 0.81406C0.146011 0.908532 0.0819603 1.01994 0.0430998 1.14095C0.00423931 1.26196 -0.00854966 1.38983 0.00557482 1.51615V8.01615C0.00557482 8.25484 0.100396 8.48376 0.269179 8.65254C0.437961 8.82132 0.66688 8.91615 0.905575 8.91615H12.2056V50.6161C12.2056 50.8548 12.3004 51.0838 12.4692 51.2525C12.638 51.4213 12.8669 51.5161 13.1056 51.5161H22.5056C22.7443 51.5161 22.9732 51.4213 23.142 51.2525C23.3108 51.0838 23.4056 50.8548 23.4056 50.6161V8.81615H34.7056C34.9443 8.81615 35.1732 8.72132 35.342 8.55254C35.5108 8.38376 35.6056 8.15484 35.6056 7.91615V1.51615C35.5806 1.24207 35.4537 0.987331 35.2501 0.802202C35.0464 0.617074 34.7808 0.515006 34.5056 0.516146Z" fill="#002554"/>
<path fill-rule="evenodd" clip-rule="evenodd" d="M75.7056 0.516146H42.1056C41.9785 0.515359 41.8527 0.5415 41.7364 0.592848C41.6201 0.644197 41.5161 0.719589 41.431 0.81406C41.346 0.908532 41.282 1.01994 41.2431 1.14095C41.2043 1.26196 41.1915 1.38983 41.2056 1.51615V50.5161C41.2056 50.7548 41.3004 50.9838 41.4692 51.1525C41.638 51.3213 41.8669 51.4161 42.1056 51.4161H75.7056C75.8319 51.4303 75.9598 51.4175 76.0808 51.3786C76.2018 51.3398 76.3132 51.2757 76.4077 51.1907C76.5021 51.1057 76.5775 51.0016 76.6289 50.8853C76.6802 50.7691 76.7064 50.6432 76.7056 50.5161V44.1161C76.7217 43.981 76.7069 43.8439 76.6623 43.7152C76.6177 43.5866 76.5446 43.4697 76.4483 43.3735C76.352 43.2772 76.2352 43.204 76.1065 43.1594C75.9779 43.1149 75.8408 43.1001 75.7056 43.1161H52.5056V29.6161H70.2056C70.3408 29.6322 70.4779 29.6174 70.6065 29.5729C70.7352 29.5283 70.852 29.4551 70.9483 29.3588C71.0446 29.2626 71.1177 29.1457 71.1623 29.0171C71.2069 28.8884 71.2217 28.7513 71.2056 28.6161V22.1161C71.2064 21.9891 71.1802 21.8632 71.1289 21.747C71.0775 21.6307 71.0021 21.5266 70.9077 21.4416C70.8132 21.3566 70.7018 21.2925 70.5808 21.2537C70.4598 21.2148 70.3319 21.202 70.2056 21.2161H52.5056V8.81615H75.7056C75.8319 8.83027 75.9598 8.81748 76.0808 8.77862C76.2018 8.73976 76.3132 8.67571 76.4077 8.59068C76.5021 8.50566 76.5775 8.40159 76.6289 8.28533C76.6802 8.16906 76.7064 8.04324 76.7056 7.91615V1.51615C76.8056 0.916146 76.3056 0.516146 75.7056 0.516146Z" fill="#002554"/>
<path fill-rule="evenodd" clip-rule="evenodd" d="M156.006 0.516146H122.406C122.278 0.515359 122.153 0.5415 122.036 0.592848C121.92 0.644197 121.816 0.719589 121.731 0.81406C121.646 0.908532 121.582 1.01994 121.543 1.14095C121.504 1.26196 121.491 1.38983 121.506 1.51615V50.5161C121.506 50.7548 121.6 50.9838 121.769 51.1525C121.938 51.3213 122.167 51.4161 122.406 51.4161H156.006C156.254 51.4174 156.495 51.3259 156.68 51.1595C156.864 50.993 156.981 50.7637 157.006 50.5161V44.1161C157.006 43.8509 156.9 43.5966 156.713 43.409C156.525 43.2215 156.271 43.1161 156.006 43.1161H132.706V29.6161H150.506C150.641 29.6322 150.778 29.6174 150.906 29.5729C151.035 29.5283 151.152 29.4551 151.248 29.3588C151.345 29.2626 151.418 29.1457 151.462 29.0171C151.507 28.8884 151.522 28.7513 151.506 28.6161V22.1161C151.506 21.9891 151.48 21.8632 151.429 21.747C151.378 21.6307 151.302 21.5266 151.208 21.4416C151.113 21.3566 151.002 21.2925 150.881 21.2537C150.76 21.2148 150.632 21.202 150.506 21.2161H132.706V8.81615H156.006C156.254 8.81739 156.495 8.72587 156.68 8.55945C156.864 8.39303 156.981 8.16367 157.006 7.91615V1.51615C157.106 0.916146 156.506 0.516146 156.006 0.516146Z" fill="#002554"/>
<path fill-rule="evenodd" clip-rule="evenodd" d="M188.706 28.8161H167.806C167.567 28.8161 167.338 28.911 167.169 29.0798C167 29.2485 166.906 29.4775 166.906 29.7161V50.5161C166.906 50.7548 167 50.9838 167.169 51.1525C167.338 51.3213 167.567 51.4161 167.806 51.4161H188.706C188.944 51.4161 189.173 51.3213 189.342 51.1525C189.511 50.9838 189.606 50.7548 189.606 50.5161V29.8161C189.607 29.5674 189.515 29.3271 189.349 29.1422C189.182 28.9573 188.953 28.841 188.706 28.8161Z" fill="#002554"/>
<path fill-rule="evenodd" clip-rule="evenodd" d="M187.206 20.8161H169.306V2.91615H187.206V20.8161ZM188.706 0.516146H167.806C167.678 0.515359 167.553 0.5415 167.436 0.592848C167.32 0.644197 167.216 0.719589 167.131 0.81406C167.046 0.908532 166.982 1.01994 166.943 1.14095C166.904 1.26196 166.891 1.38983 166.906 1.51615V22.2161C166.891 22.3425 166.904 22.4703 166.943 22.5913C166.982 22.7124 167.046 22.8238 167.131 22.9182C167.216 23.0127 167.32 23.0881 167.436 23.1394C167.553 23.1908 167.678 23.2169 167.806 23.2161H188.706C188.833 23.2169 188.958 23.1908 189.075 23.1394C189.191 23.0881 189.295 23.0127 189.38 22.9182C189.465 22.8238 189.529 22.7124 189.568 22.5913C189.607 22.4703 189.62 22.3425 189.606 22.2161V1.51615C189.62 1.38983 189.607 1.26196 189.568 1.14095C189.529 1.01994 189.465 0.908532 189.38 0.81406C189.295 0.719589 189.191 0.644197 189.075 0.592848C188.958 0.5415 188.833 0.515359 188.706 0.516146Z" fill="#002554"/>
<path fill-rule="evenodd" clip-rule="evenodd" d="M95.3056 10.0161C97.2876 8.89405 99.528 8.30812 101.806 8.31614C105.786 8.37076 109.733 9.04552 113.506 10.3161C113.756 10.3553 114.011 10.3071 114.23 10.1796C114.449 10.052 114.617 9.85305 114.706 9.61614L115.706 4.01614C115.767 3.84577 115.792 3.66446 115.779 3.48381C115.767 3.30316 115.716 3.12717 115.632 2.96712C115.547 2.80707 115.43 2.66649 115.287 2.55439C115.145 2.44229 114.981 2.36114 114.806 2.31614C110.607 0.921549 106.228 0.146728 101.806 0.0161434C98.8783 -0.0760129 95.952 0.226711 93.1056 0.916143C86.7056 2.51614 82.7056 7.31614 81.2056 14.8161C80.5858 18.5169 80.2847 22.2639 80.3056 26.0161C80.2933 29.7349 80.5943 33.448 81.2056 37.1161C82.7056 44.6161 86.7056 49.4161 93.1056 51.0161C95.952 51.7056 98.8783 52.0083 101.806 51.9161C106.222 51.8109 110.6 51.0699 114.806 49.7161C114.985 49.6597 115.151 49.5679 115.293 49.446C115.436 49.3242 115.553 49.1749 115.637 49.0069C115.721 48.839 115.77 48.6559 115.782 48.4685C115.794 48.2811 115.768 48.0933 115.706 47.9161L114.506 42.5161C114.406 41.9161 113.906 41.7161 113.306 41.8161C109.564 43.0704 105.652 43.7449 101.706 43.8161C99.3906 43.8718 97.1056 43.2832 95.1056 42.1161C92.7056 40.6161 91.7056 38.2161 91.0056 35.0161C90.5391 32.0724 90.305 29.0966 90.3056 26.1161C90.2834 23.2715 90.484 20.4295 90.9056 17.6161C91.5056 14.2161 92.9056 11.6161 95.3056 10.0161Z" fill="#002554"/>
</svg>
